<svg xmlns="http://www.w3.org/2000/svg" width="96" height="96" viewBox="0 0 96 96" role="img" aria-label="伴走支援">
  <g fill="none" stroke="#681116" stroke-width="4.8" stroke-linecap="round" stroke-linejoin="round">
    <path d="M17 60c7-8 15-12 25-12h7c4 0 7 3 7 7s-3 7-7 7H38"/>
    <path d="M79 60c-7-8-15-12-25-12h-7"/>
    <path d="M24 67l16 11c5 3 12 3 17 0l19-13"/>
    <path d="M33 56l-11-8"/>
    <path d="M63 56l11-8"/>
    <path d="M48 43c-2-2-14-10-14-21 0-6 4-10 10-10 4 0 7 2 9 6 2-4 5-6 9-6 6 0 10 4 10 10 0 11-12 19-14 21l-5 4z" fill="#c77a58" stroke="#681116"/>
  </g>
</svg>
