<svg xmlns="http://www.w3.org/2000/svg" width="96" height="96" viewBox="0 0 96 96" role="img" aria-label="伴走支援">
  <g fill="none" stroke="#681116" stroke-width="5" stroke-linecap="round" stroke-linejoin="round">
    <circle cx="34" cy="26" r="10" fill="#fff8f4"/>
    <circle cx="62" cy="26" r="10" fill="#fff8f4"/>
    <path d="M18 74c2-19 12-31 27-31"/>
    <path d="M78 74c-2-19-12-31-27-31"/>
    <path d="M29 55c7 8 15 12 24 12s17-4 24-12" stroke="#c77a58"/>
    <path d="M48 40c-3-5-11-6-15-1-5 7 2 16 15 24 13-8 20-17 15-24-4-5-12-4-15 1z" fill="#fff2ee"/>
  </g>
</svg>
