<svg xmlns="http://www.w3.org/2000/svg" width="164" height="164" viewBox="0 0 164 164" role="img" aria-label="外国人採用が初めてで不安">
  <rect width="164" height="164" rx="24" fill="#EAF4FF"/>
  <g fill="none" stroke="#2D4C69" stroke-width="5" stroke-linecap="round" stroke-linejoin="round">
    <circle cx="77" cy="58" r="25" fill="#F6D2BF"/>
    <path d="M52 60c6-24 43-27 54 2"/>
    <path d="M55 54c12 3 30 3 43-5"/>
    <path d="M44 145c3-31 19-48 38-48s35 17 38 48"/>
    <path d="M68 73c6 5 15 5 21 0"/>
    <path d="M120 35c7-10 23-7 23 6 0 11-13 13-13 24M130 82v1"/>
  </g>
</svg>
